<svg xmlns="http://www.w3.org/2000/svg" xmlns:xlink="http://www.w3.org/1999/xlink" xmlns:lucid="lucid" width="1376.75" height="776.4">
  <g transform="translate(-472.58465174 1276.4)" lucid:page-tab-id="0_0">
    <path d="M720-880v160h62.08v-160zm989.33 42.88v80h48v-80zm48 40 72-40v80l-72-40M492.58-920v240h64v-240z" stroke="#333" stroke-width="2" fill="#fff"/>
    <path d="M559.08-797.1h30.18l.02-.02h11.06" stroke="#19967d" stroke-width="3" fill="none"/>
    <path d="M559.12-795.6h-1.54v-3h1.54z" stroke="#19967d" stroke-width=".05" fill="#19967d"/>
    <path d="m616.1-797.12-14.26 4.64v-9.27z" stroke="#19967d" stroke-width="3" fill="#19967d"/>
    <path d="M558.08-860h31.96a12 12 0 0 0 12-12v-136a12 12 0 0 1 12-12h12.84" stroke="#19967d" stroke-width="3" fill="none"/>
    <path d="M558.12-858.5h-.54v-3h.54z" stroke="#19967d" stroke-width=".05" fill="#19967d"/>
    <path d="m642.65-1020-14.27 4.64v-9.28z" stroke="#19967d" stroke-width="3" fill="#19967d"/>
    <path d="M558.08-740h31.96a12 12 0 0 1 12 12v136a12 12 0 0 0 12 12h12.84" stroke="#19967d" stroke-width="3" fill="none"/>
    <path d="M558.12-738.5h-.54v-3h.54z" stroke="#19967d" stroke-width=".05" fill="#19967d"/>
    <path d="m642.65-580-14.27 4.64v-9.28z" stroke="#19967d" stroke-width="3" fill="#19967d"/>
    <path d="M615.25-828.16h62.08v62.08h-62.08z" fill="none"/>
    <path d="M621.46-812.64v31.04l23.83-15.52zm23.83 15.52h2zm2 0 23.83-15.52v31.04zm-.99 0v-18.62m-12.42 0c0-3.43 5.55-6.2 12.4-6.2 6.87 0 12.43 2.77 12.43 6.2z" stroke="#333" fill="#fff"/>
    <path d="M640-1060h80v80h-80z" fill="none"/>
    <path d="M648-1040v40l31-20zm31 20h2zm2 0 31-20v40zm-1 0v-24m-16 0c0-4.42 7.16-8 16-8s16 3.58 16 8z" stroke="#333" fill="#fff"/>
    <path d="M640-620h80v80h-80z" fill="none"/>
    <path d="M648-600v40l31-20zm31 20h2zm2 0 31-20v40zm-1 0v-24m-16 0c0-4.42 7.16-8 16-8s16 3.58 16 8z" stroke="#333" fill="#fff"/>
    <path d="M714-580h95.3m-95.26 0h-4.54m99.75 0h4.54" stroke="#19967d" stroke-width="3" fill="none"/>
    <path d="M1289.9-640h-268.77c-46.77 0-46.77 120 0 120h268.78c33.52-3.36 33.52-114.48 0-120z" stroke="#333" stroke-width="2" fill="#fff"/>
    <path d="M1288.5-640v120m-267.37-120v120" stroke="#333" stroke-width="2" fill="none"/>
    <path d="M1289.95-1080h-268.78c-46.77 0-46.77 120 0 120h268.78c33.5-3.36 33.5-114.48 0-120z" stroke="#000" stroke-width="2" fill="#fff"/>
    <path d="M1288.55-1080v120m-267.38-120v120" stroke="#000" stroke-width="2" fill="none"/>
    <path d="M983.62-1020H957" stroke="#19967d" stroke-width="3" fill="none"/>
    <path d="M985.12-1018.5h-1.54v-3h1.54z" stroke="#19967d" stroke-width=".05" fill="#19967d"/>
    <path d="M957.04-1020h-4.54m31.08 439.6h-12.6a.2.2 0 0 0-.2.2.2.2 0 0 1-.2.2H958" stroke="#19967d" stroke-width="3" fill="none"/>
    <path d="M985.08-578.9h-1.54v-3h1.54z" stroke="#19967d" stroke-width=".05" fill="#19967d"/>
    <path d="M958.04-580h-4.54m-49.93-440H922m-18.4 0h-4.53m22.89 0h4.54" stroke="#19967d" stroke-width="3" fill="none"/>
    <path d="M920-1030h40v20h-40z" fill="none"/>
    <path d="M924-1010v-20l32 20v-20" stroke="#333" fill="none"/>
    <path d="M926-1030c0 1.1-.9 2-2 2s-2-.9-2-2 .9-2 2-2 2 .9 2 2zm4-4h20zm20 0-2-2v4z" stroke="#333" fill="#333"/>
    <path d="M920-590h40v20h-40z" fill="none"/>
    <path d="M924-570v-20l32 20v-20" stroke="#333" fill="none"/>
    <path d="M926-590c0 1.1-.9 2-2 2s-2-.9-2-2 .9-2 2-2 2 .9 2 2zm4-4h20zm20 0-2-2v4z" stroke="#333" fill="#333"/>
    <path d="M800-632.86h112.86V-520H800z" fill="none"/>
    <path d="M811.3-604.65v56.43l44.13-28.2zm44.13 28.22h2zm2 0 44.14-28.22v56.43z" stroke="#333" fill="#333"/>
    <path d="M856.43-603.88v26.45" stroke="#333" fill="none"/>
    <path d="M856.93-603.86h-1v-.52h1z" stroke="#333" stroke-width=".05" fill="#333"/>
    <path d="M856.42-577.44v3.5" stroke="#333" fill="none"/>
    <path d="M838.25-640h36.36v34.62h-36.35z" stroke="#333" stroke-width="2" fill="#fff"/>
    <path d="M871.08-574.68c0 8-6.7 14.5-14.96 14.5-8.26 0-14.96-6.5-14.96-14.5s6.7-14.5 14.96-14.5c8.26 0 14.96 6.5 14.96 14.5z" stroke="#333" fill="#fff"/>
    <path d="M912.86-967.14H800V-1080h112.86z" fill="none"/>
    <path d="M901.57-995.35v-56.43l-44.14 28.2zm-44.14-28.22h-2zm-2 0-44.14 28.22v-56.43z" stroke="#333" fill="#333"/>
    <path d="M856.43-996.12v-26.45" stroke="#333" fill="none"/>
    <path d="M856.93-995.62h-1v-.52h1z" stroke="#333" stroke-width=".05" fill="#333"/>
    <path d="M856.44-1022.56v-3.5" stroke="#333" fill="none"/>
    <path d="M874.6-960h-36.35v-34.62h36.36z" stroke="#333" stroke-width="2" fill="#fff"/>
    <path d="M841.78-1025.32c0-8 6.7-14.5 14.96-14.5 8.26 0 14.96 6.5 14.96 14.5s-6.7 14.5-14.96 14.5c-8.26 0-14.96-6.5-14.96-14.5z" stroke="#333" fill="#fff"/>
    <path d="M1560-632.86h112.86V-520H1560z" fill="none"/>
    <path d="M1571.3-604.65v56.43l44.13-28.2zm44.13 28.22h2zm2 0 44.14-28.22v56.43z" stroke="#333" fill="#333"/>
    <path d="M1616.43-603.88v26.45" stroke="#333" fill="none"/>
    <path d="M1616.93-603.86h-1v-.52h1z" stroke="#333" stroke-width=".05" fill="#333"/>
    <path d="M1616.42-577.44v3.5" stroke="#333" fill="none"/>
    <path d="M1598.25-640h36.36v34.62h-36.35z" stroke="#333" stroke-width="2" fill="#fff"/>
    <path d="M1631.08-574.68c0 8-6.7 14.5-14.96 14.5-8.26 0-14.96-6.5-14.96-14.5s6.7-14.5 14.96-14.5c8.26 0 14.96 6.5 14.96 14.5z" stroke="#333" fill="#fff"/>
    <path d="M751.04-718v83.3a12 12 0 0 0 12 12h73.2" stroke="#ef8d22" stroke-width="2" fill="none"/>
    <path d="M752.04-717.97h-2V-719h2zm85.21 96.27h-1.03v-2h1.03z" stroke="#ef8d22" stroke-width=".05" fill="#ef8d22"/>
    <path d="M784.08-841.3h22.75" stroke="#ef8d22" stroke-width="2" fill="none"/>
    <path d="M784.1-840.3h-1.02v-2h1.03z" stroke="#ef8d22" stroke-width=".05" fill="#ef8d22"/>
    <path d="m822.1-841.3-14.27 4.65v-9.27z" stroke="#ef8d22" stroke-width="2" fill="#fff"/>
    <path d="M751.04-882v-83.3a12 12 0 0 1 12-12h73.2" stroke="#ef8d22" stroke-width="2" fill="none"/>
    <path d="M752.04-881h-2v-1.03h2zm85.21-95.3h-1.03v-2h1.03z" stroke="#ef8d22" stroke-width=".05" fill="#ef8d22"/>
    <path d="M991.78-1060.3h-33.22a12 12 0 0 1-12-12v-88.78" stroke="#1071e5" stroke-width="3" fill="none"/>
    <path d="m992.94-1059.62-.36.82h-.84v-3h2.28z" stroke="#1071e5" stroke-width=".05" fill="#1071e5"/>
    <path d="M946.56-1161.04v-4.54" stroke="#1071e5" stroke-width="3" fill="none"/>
    <path d="M988.8-1217.08v60h-60v-60z" fill="none"/>
    <path d="M958.8-1211.08h-30l15 23zm-15 23v2zm0 2 15 23h-30zm0-1h15zm15 0v-15h30v30h-30z" stroke="#333" fill="#fff"/>
    <use xlink:href="#a" transform="rotate(90 1081.04568853 -112.33478268)"/>
    <path d="M941.6-1212.08v-18.9m0 18.88v3.52m10-41.6-10 20-10-20" stroke="#333" fill="none"/>
    <path d="M941.6-1250.18v20" stroke="#333" fill="#fff"/>
    <path d="m1400-1040 56.5 8.04v23.96l-56.5 7.88V-1040zm120 40-63.37-8.04V-1032l63.37-7.88v39.88zm-120 400 56.5 8.04V-568l-56.5 7.88V-600zm120 40-63.37-8.04V-592l63.37-7.88V-560z" stroke="#333" stroke-width="2" fill="#fff"/>
    <path d="M1672.86-967.14H1560V-1080h112.86z" fill="none"/>
    <path d="M1661.57-995.35v-56.43l-44.14 28.2zm-44.14-28.22h-2zm-2 0-44.14 28.22v-56.43z" stroke="#333" fill="#333"/>
    <path d="M1616.43-996.12v-26.45" stroke="#333" fill="none"/>
    <path d="M1616.93-995.62h-1v-.52h1z" stroke="#333" stroke-width=".05" fill="#333"/>
    <path d="M1616.44-1022.56v-3.5" stroke="#333" fill="none"/>
    <path d="M1634.6-960h-36.35v-34.62h36.36z" stroke="#333" stroke-width="2" fill="#fff"/>
    <path d="M1601.78-1025.32c0-8 6.7-14.5 14.96-14.5 8.26 0 14.96 6.5 14.96 14.5s-6.7 14.5-14.96 14.5c-8.26 0-14.96-6.5-14.96-14.5z" stroke="#333" fill="#fff"/>
    <path d="M1569.3-580h-46.8m46.75 0h4.54" stroke="#c92d39" stroke-width="3" fill="none"/>
    <path d="M1522.54-578.5H1521v-3h1.54z" stroke="#c92d39" stroke-width=".05" fill="#c92d39"/>
    <path d="M1663.57-576.43h61.25a12 12 0 0 0 12-12V-735.5m-73.22 159.07h-4.53" stroke="#c92d39" stroke-width="3" fill="none"/>
    <path d="m1736.82-751.26 4.64 14.26h-9.27z" stroke="#c92d39" stroke-width="3" fill="#c92d39"/>
    <path d="M1663.57-1023.57h62.37a12 12 0 0 1 12 12v152.83m-74.34-164.83h-4.53" stroke="#1071e5" stroke-width="3" fill="none"/>
    <path d="m1737.94-842.97-4.63-14.27h9.28z" stroke="#1071e5" stroke-width="3" fill="#1071e5"/>
    <path d="M1569.3-1023.57h-46.8m46.75 0h4.54" stroke="#0c7cba" stroke-width="3" fill="none"/>
    <path d="M1522.54-1022.07H1521v-3h1.54z" stroke="#0c7cba" stroke-width=".05" fill="#0c7cba"/>
    <path d="M1317.5-580h80" stroke="#c92d39" stroke-width="3" fill="none"/>
    <path d="M1317.55-578.5h-1.5l-.06-3h1.55zm81.45 0h-1.54v-3h1.54z" stroke="#c92d39" stroke-width=".05" fill="#c92d39"/>
    <path d="M1317.55-1020h79.95" stroke="#1071e5" stroke-width="3" fill="none"/>
    <path d="M1317.6-1018.5h-1.52l-.05-3h1.56zm81.4 0h-1.54v-3h1.54z" stroke="#1071e5" stroke-width=".05" fill="#1071e5"/>
    <path d="M673.13-800.5h22.16a.02.02 0 0 0 0-.02.02.02 0 0 1 .03-.02h3.05m-25.21.04h-4.53" stroke="#19967d" stroke-width="3" fill="none"/>
    <path d="m714.15-800.54-14.27 4.64v-9.27z" stroke="#19967d" stroke-width="3" fill="#19967d"/>
    <path d="M714-1023.57h95.3m-95.26 0h-4.54m99.75 0h4.54M903.57-580H922m-18.4 0h-4.53m22.89 0h4.54" stroke="#19967d" stroke-width="3" fill="none"/>
    <path d="M784.08-758.7h21.42" stroke="#ef8d22" stroke-width="2" fill="none"/>
    <path d="M784.1-757.7h-1.02v-2h1.03z" stroke="#ef8d22" stroke-width=".05" fill="#ef8d22"/>
    <path d="m820.76-758.7-14.26 4.62v-9.27z" stroke="#ef8d22" stroke-width="2" fill="#fff"/>
    <defs>
      <path d="M185-189c-5-48-123-54-124 2 14 75 158 14 163 119 3 78-121 87-175 55-17-10-28-26-33-46l33-7c5 56 141 63 141-1 0-78-155-14-162-118-5-82 145-84 179-34 5 7 8 16 11 25" id="b"/>
      <use transform="scale(.05)" xlink:href="#b" id="a"/>
    </defs>
  </g>
</svg>
